<svg width="20" height="20" viewBox="0 0 20 20" fill="none" xmlns="http://www.w3.org/2000/svg">
<path d="M10 -0.000976562C4.4861 -0.000976562 0 4.48512 0 9.99902C0 15.5129 4.4861 19.999 10 19.999C15.5139 19.999 20 15.5129 20 9.99902C20 4.48512 15.5139 -0.000976562 10 -0.000976562ZM10 18.749C5.17517 18.749 1.25001 14.8239 1.25001 9.99902C1.25001 5.17419 5.17517 1.24903 10 1.24903C14.8248 1.24903 18.75 5.17419 18.75 9.99902C18.75 14.8239 14.8248 18.749 10 18.749Z" fill="#0C4E68"/>
<path d="M10.625 3.74904H9.375V10.2578L13.3081 14.1909L14.1919 13.3071L10.625 9.74023V3.74904Z" fill="#0C4E68"/>
</svg>
