<svg width="20" height="27" viewBox="0 0 20 27" fill="none" xmlns="http://www.w3.org/2000/svg">
<path d="M10 -0.000976562C4.48588 -0.000976562 0 4.466 0 9.95689C0 11.7645 0.814118 13.7087 0.848235 13.7907C1.11118 14.4122 1.63 15.3775 2.00412 15.9433L8.86059 26.2884C9.14118 26.7125 9.55647 26.9555 10 26.9555C10.4435 26.9555 10.8588 26.7125 11.1394 26.289L17.9965 15.9433C18.3712 15.3775 18.8894 14.4122 19.1524 13.7907C19.1865 13.7092 20 11.7651 20 9.95689C20 4.466 15.5141 -0.000976562 10 -0.000976562ZM18.0676 13.3361C17.8329 13.8932 17.35 14.7911 17.0141 15.2984L10.1571 25.644C10.0218 25.8485 9.97882 25.8485 9.84353 25.644L2.98647 15.2984C2.65059 14.7911 2.16765 13.8926 1.93294 13.3355C1.92294 13.3115 1.17647 11.522 1.17647 9.95689C1.17647 5.11209 5.13471 1.17054 10 1.17054C14.8653 1.17054 18.8235 5.11209 18.8235 9.95689C18.8235 11.5244 18.0753 13.3185 18.0676 13.3361Z" fill="#0C4E68"/>
<path d="M10 4.68566C7.08059 4.68566 4.70588 7.05095 4.70588 9.95747C4.70588 12.864 7.08059 15.2293 10 15.2293C12.9194 15.2293 15.2941 12.864 15.2941 9.95747C15.2941 7.05095 12.9194 4.68566 10 4.68566ZM10 14.0578C7.73 14.0578 5.88235 12.2185 5.88235 9.95747C5.88235 7.69645 7.73 5.85718 10 5.85718C12.27 5.85718 14.1176 7.69645 14.1176 9.95747C14.1176 12.2185 12.27 14.0578 10 14.0578Z" fill="#0C4E68"/>
</svg>
