<svg width="277" height="77" viewBox="0 0 277 77" fill="none" xmlns="http://www.w3.org/2000/svg">
<path d="M103.543 10.0295V9.14453H127.635C128.293 9.14453 128.842 9.34566 128.842 9.58702C128.842 9.82838 128.293 10.0295 127.635 10.0295H103.543Z" fill="#0C4E68"/>
<path d="M101.773 16.2243V15.3394H122.477C123.135 15.3394 123.684 15.5405 123.684 15.7818C123.684 16.0232 123.135 16.2243 122.477 16.2243H101.773Z" fill="#0C4E68"/>
<path d="M104.428 23.3044V22.4194H118.307C118.965 22.4194 119.514 22.6206 119.514 22.8619C119.514 23.1033 118.965 23.3044 118.307 23.3044H104.428Z" fill="#0C4E68"/>
<path d="M110.623 48.084V48.969H100.528C99.8694 48.969 99.3206 48.7678 99.3206 48.5265C99.2109 48.2851 99.7596 48.084 100.528 48.084H110.623Z" fill="#0C4E68"/>
<path d="M116.818 53.3939V54.2782C116.802 54.2784 116.786 54.2785 116.77 54.2785H100.089C99.4301 54.2785 98.8813 54.0774 98.8813 53.836C98.8813 53.5947 99.4301 53.3936 100.089 53.3936H116.77C116.786 53.3936 116.802 53.3937 116.818 53.3939Z" fill="#0C4E68"/>
<path d="M111.508 58.7036V59.5886H99.7862C99.6775 59.5487 99.657 59.4873 99.6293 59.4042C99.6058 59.3338 99.577 59.2477 99.4847 59.1461C99.4847 59.0511 99.4139 58.9624 99.3559 58.8896C99.2664 58.7776 99.2074 58.7036 99.4848 58.7036H111.508Z" fill="#0C4E68"/>
<path fill-rule="evenodd" clip-rule="evenodd" d="M115.234 50.1117C121.489 55.4381 131.037 63.482 129.281 76.9611C133.232 64.0255 122.587 51.7422 112.6 40.4373C111.173 38.9154 109.856 37.2849 108.539 35.7631C102.174 28.2626 97.1256 21.0883 98.2231 14.4575C97.4549 18.8056 96.7964 26.306 102.723 35.9805C103.491 37.2849 104.369 38.4806 105.357 39.8937C105.905 40.6547 106.454 41.3069 107.113 42.0678C108.539 43.807 110.185 45.4375 112.051 47.1768C112.929 48.1551 114.027 49.0247 115.234 50.1117Z" fill="#D3D3D3"/>
<path fill-rule="evenodd" clip-rule="evenodd" d="M110.295 33.8063C111.832 32.067 113.368 30.4365 114.905 28.806C122.258 20.8707 129.611 12.9355 130.818 2.82625C130.379 6.41341 128.404 10.9789 119.514 18.588C117.978 19.8924 114.685 23.0448 111.503 26.0884C109.856 27.6103 108.32 29.1321 106.893 30.4365C107.771 31.5235 108.978 32.6105 110.295 33.8063ZM130.928 1.52183C130.928 0.978316 130.928 0.434807 130.928 0C130.928 0.108702 130.928 0.108702 130.928 0.217404C130.928 0.652211 130.928 1.08702 130.928 1.52183Z" fill="#D3D3D3"/>
<path fill-rule="evenodd" clip-rule="evenodd" d="M99.7591 62.3947C95.8082 47.0677 101.625 37.0672 102.722 36.0889C103.49 37.3933 104.368 38.589 105.356 40.0021C100.637 46.4155 97.7836 53.5899 99.7591 62.3947Z" fill="#696D6E"/>
<path fill-rule="evenodd" clip-rule="evenodd" d="M99.7596 62.3948C99.7596 58.3729 98.3329 51.4159 107.003 42.0676C106.344 41.3067 105.796 40.6545 105.247 39.8936C100.638 46.4157 97.7842 53.59 99.7596 62.3948Z" fill="#D3D3D3"/>
<path fill-rule="evenodd" clip-rule="evenodd" d="M129.282 76.9608C132.464 67.5037 132.025 52.3941 117.649 40.3282C116.002 38.9151 114.466 37.6107 113.039 36.415C112.052 35.5454 111.064 34.6758 110.296 33.9148C108.979 32.7191 107.881 31.6321 106.784 30.5451C99.5404 23.1534 98.9917 19.7836 98.443 15.7616C98.3332 15.3268 98.3332 15.0007 98.2235 14.5659C97.126 21.1967 102.174 28.2623 108.54 35.8715C109.857 37.3933 111.174 38.9151 112.6 40.5457C122.587 51.7419 133.233 64.0252 129.282 76.9608Z" fill="#F0F0F0"/>
<path fill-rule="evenodd" clip-rule="evenodd" d="M130.928 0C133.562 18.3706 120.502 29.893 113.039 36.4151C112.051 35.5455 111.064 34.6759 110.295 33.915C111.832 32.1757 113.368 30.5452 114.905 28.9147C122.258 20.9794 129.611 13.0442 130.818 2.93495L130.928 0ZM130.928 0C130.928 0.108702 130.928 0.108702 130.928 0.217404V0ZM130.928 0.108702C130.928 0.978316 130.928 1.84793 130.708 2.82625L130.928 0.108702Z" fill="#F0F0F0"/>
<path d="M102.722 35.9805C101.625 36.9588 95.8082 46.9594 99.7591 62.2863C97.7836 53.4815 100.637 46.4158 105.356 39.785L105.246 39.6763C104.259 38.4806 103.49 37.2849 102.722 35.9805Z" fill="#F0F0F0"/>
<path d="M23.7052 53.1552L20.6323 45.22H4.82884L1.75594 53.1552H0L11.8526 23.2622H13.4988L25.3514 53.1552H23.7052ZM5.37757 43.8068H20.0836L12.6208 25.1101L5.37757 43.8068Z" fill="#0C4E68"/>
<path d="M30.9488 53.1554C30.7294 53.1554 30.4001 53.0467 30.1806 52.938C29.9611 52.7206 29.8514 52.5032 29.8514 52.177C29.8514 51.8509 29.9611 51.6335 30.1806 51.4161C30.4001 51.1987 30.6196 51.1987 30.9488 51.1987C31.1683 51.1987 31.4976 51.3074 31.7171 51.4161C31.9366 51.6335 31.9366 51.8509 31.9366 52.177C31.9366 52.3944 31.8268 52.7206 31.7171 52.938C31.4976 53.1554 31.2781 53.1554 30.9488 53.1554Z" fill="#0C4E68"/>
<path d="M47.3004 53.1554C42.8008 53.1554 39.0694 51.6336 36.1062 48.6986C33.1431 45.7637 31.6066 42.0678 31.6066 37.8284C31.6066 33.5891 33.1431 29.8932 36.1062 26.9582C39.0694 24.0233 42.8008 22.5015 47.3004 22.5015C50.044 22.5015 52.4584 23.2624 54.8729 24.3494C57.1775 25.6538 58.9335 27.2843 60.2504 29.4584L58.8237 30.328C57.6165 28.4801 56.0801 26.8495 53.9949 25.6538C51.9097 24.4581 49.7148 23.9146 47.3004 23.9146C43.2397 23.9146 39.8376 25.3277 37.2037 27.9366C34.5698 30.6541 33.1431 34.0239 33.1431 37.9371C33.1431 41.8504 34.46 45.1114 37.2037 47.9377C39.8376 50.6552 43.13 51.9597 47.3004 51.9597C49.8245 51.9597 52.1292 51.4161 54.1046 50.2204C56.2996 49.0247 57.836 47.3942 58.8237 45.4375L60.2504 46.3072C58.9335 48.5899 57.2873 50.3291 54.8729 51.6335C52.5682 52.6119 50.044 53.1554 47.3004 53.1554Z" fill="#0C4E68"/>
<path d="M63.7628 53.1554C63.5433 53.1554 63.2141 53.0467 62.9946 52.938C62.7751 52.7206 62.6653 52.5032 62.6653 52.177C62.6653 51.8509 62.7751 51.6335 62.9946 51.4161C63.2141 51.1987 63.4336 51.1987 63.7628 51.1987C64.092 51.1987 64.3115 51.3074 64.531 51.4161C64.7505 51.6335 64.7505 51.8509 64.7505 52.177C64.7505 52.3944 64.6408 52.7206 64.531 52.938C64.4213 53.1554 63.9823 53.1554 63.7628 53.1554Z" fill="#0C4E68"/>
<path d="M84.2855 23.2622V24.6753H74.518V53.1552H72.9816V24.6753H63.3239V23.2622H84.2855Z" fill="#0C4E68"/>
<path d="M83.4075 53.1554C83.188 53.1554 82.8588 53.0467 82.6393 52.938C82.4198 52.7206 82.3101 52.5032 82.3101 52.177C82.3101 51.8509 82.4198 51.6335 82.6393 51.4161C82.8588 51.1987 83.0783 51.1987 83.4075 51.1987C83.7368 51.1987 83.9563 51.3074 84.1758 51.4161C84.3952 51.6335 84.3952 51.8509 84.3952 52.177C84.3952 52.3944 84.2855 52.7206 84.1758 52.938C83.9563 53.1554 83.627 53.1554 83.4075 53.1554Z" fill="#0C4E68"/>
<path d="M84.0735 9.14453H0V10.0295H84.0735V9.14453Z" fill="#D3D3D3"/>
<path d="M84.0735 60.4736H0V61.3586H84.0735V60.4736Z" fill="#D3D3D3"/>
<path d="M277 9.14453H144.252V10.0295H277V9.14453Z" fill="#D3D3D3"/>
<path d="M277 60.4736H144.252V61.3586H277V60.4736Z" fill="#D3D3D3"/>
<path d="M160.888 53.1549C156.388 53.1549 152.657 51.6331 149.694 48.6981C146.73 45.7632 145.194 42.0673 145.194 37.8279C145.194 33.5886 146.73 29.8927 149.694 26.9578C152.657 24.0228 156.388 22.501 160.888 22.501C163.631 22.501 166.046 23.2619 168.46 24.3489C170.765 25.6533 172.521 27.2839 173.838 29.4579L172.411 30.3275C171.204 28.3709 169.667 26.7403 167.582 25.762C165.607 24.5663 163.302 24.0228 160.888 24.0228C156.827 24.0228 153.535 25.4359 150.901 28.0448C148.267 30.7623 146.84 34.0234 146.84 37.9366C146.84 41.8499 148.157 45.111 150.901 47.8285C153.535 50.546 156.827 51.8505 160.888 51.8505C163.412 51.8505 165.717 51.307 167.692 50.1112C169.887 48.9155 171.423 47.285 172.301 45.3284L173.728 46.198C172.411 48.4807 170.765 50.2199 168.35 51.5244C166.156 52.5027 163.631 53.1549 160.888 53.1549Z" fill="#0C4E68"/>
<path d="M195.896 51.1983H181.19V22.8271H179.654V52.6114H195.896V51.1983Z" fill="#0C4E68"/>
<path d="M241.99 22.8271H240.344V52.6114H241.99V22.8271Z" fill="#0C4E68"/>
<path d="M232.552 22.8271H230.796V49.7852L211.919 22.8271H210.493V52.6114H212.249V25.5447L231.015 52.6114H232.552V22.8271Z" fill="#0C4E68"/>
<path d="M202.592 22.8271H200.945V52.6114H202.592V22.8271Z" fill="#0C4E68"/>
<path d="M252.636 48.5896C255.599 51.6333 259.331 53.0464 263.83 53.0464C266.574 53.0464 269.208 52.2855 271.512 51.0898C273.927 49.7854 275.573 48.0461 276.89 45.7634L275.463 44.8938C274.366 46.8504 272.829 48.4809 270.854 49.6767C268.659 50.8724 266.464 51.4159 264.05 51.4159C259.989 51.4159 256.697 50.0028 254.063 47.3939C251.319 44.6764 250.002 41.4153 250.002 37.5021C250.002 33.5888 251.429 30.3277 254.063 27.6102C256.697 24.8927 259.989 23.5882 264.05 23.5882C266.574 23.5882 268.659 24.1317 270.744 25.3275C272.829 26.5232 274.366 28.045 275.573 29.8929L277 29.0233C275.683 26.8493 273.927 25.2188 271.622 23.9143C269.208 22.6099 266.793 22.0664 264.05 22.0664C259.55 22.0664 255.819 23.5882 252.856 26.5232C249.892 29.4581 248.356 33.154 248.356 37.3934C248.356 41.6327 249.673 45.6547 252.636 48.5896Z" fill="#0C4E68"/>
</svg>
