<svg width="22" height="22" viewBox="0 0 22 22" fill="none" xmlns="http://www.w3.org/2000/svg">
<path d="M20.8886 15.6174L20.8723 15.7647C16.8887 13.6129 16.472 13.3262 15.9575 14.1626C15.6006 14.7418 14.5608 16.0552 14.2474 16.444C13.9303 16.8268 13.6151 16.8563 13.0771 16.5912C12.5336 16.2967 10.789 15.6783 8.72383 13.6757C7.11514 12.1149 6.03544 10.2006 5.7166 9.61164C5.1858 8.6182 6.29631 8.47685 7.30717 6.40359C7.48833 5.9913 7.39594 5.66735 7.26188 5.37482C7.12601 5.08032 6.0445 2.19425 5.5916 1.04375C5.15682 -0.102818 4.70936 0.0424673 4.37421 0.0424673C3.33074 -0.0556982 2.56806 -0.039992 1.89596 0.717845C-1.02794 4.20076 -0.290624 7.79361 2.21118 11.6142C7.12783 18.5879 9.74738 19.8719 14.5372 21.6546C15.8307 22.1003 17.01 22.0374 17.943 21.8921C18.9829 21.7135 21.1441 20.4766 21.5952 19.0925C22.0571 17.7083 22.0571 16.5598 21.9212 16.2947C21.7872 16.0297 21.4321 15.8824 20.8886 15.6174V15.6174Z" fill="#0C4E68"/>
</svg>
