<svg width="29" height="29" viewBox="0 0 29 29" fill="none" xmlns="http://www.w3.org/2000/svg">
<path d="M11.2781 17.1209L11.0135 20.8435C11.3921 20.8435 11.5561 20.6809 11.7528 20.4855L13.5281 18.7889L17.2068 21.4829C17.8815 21.8589 18.3568 21.6609 18.5388 20.8622L20.9535 9.54752L20.9541 9.54686C21.1681 8.54952 20.5935 8.15952 19.9361 8.40419L5.74278 13.8382C4.77412 14.2142 4.78878 14.7542 5.57812 14.9989L9.20678 16.1275L17.6355 10.8535C18.0321 10.5909 18.3928 10.7362 18.0961 10.9989L11.2781 17.1209Z" fill="#0C4E68"/>
<path d="M14.5 27.7917C21.8408 27.7917 27.7917 21.8408 27.7917 14.5C27.7917 7.15915 21.8408 1.20825 14.5 1.20825C7.15915 1.20825 1.20825 7.15915 1.20825 14.5C1.20825 21.8408 7.15915 27.7917 14.5 27.7917Z" stroke="#0C4E68" stroke-width="2.41667"/>
</svg>
