<svg width="29" height="29" viewBox="0 0 29 29" fill="none" xmlns="http://www.w3.org/2000/svg">
<g clip-path="url(#clip0)">
<path d="M21.2423 17.6482L21.2311 17.7486C18.515 16.2815 18.2309 16.0861 17.8801 16.6563C17.6368 17.0512 16.9278 17.9467 16.7141 18.2118C16.498 18.4728 16.283 18.4929 15.9162 18.3122C15.5456 18.1114 14.3562 17.6897 12.9481 16.3243C11.8512 15.2601 11.1151 13.955 10.8977 13.5534C10.5358 12.876 11.2929 12.7797 11.9822 11.3661C12.1057 11.085 12.0427 10.8641 11.9513 10.6646C11.8586 10.4639 11.1212 8.49608 10.8125 7.71165C10.516 6.9299 10.2109 7.02895 9.98242 7.02895C9.27096 6.96202 8.75095 6.97273 8.2927 7.48944C6.29913 9.86415 6.80185 12.3138 8.50762 14.9188C11.8599 19.6736 13.6459 20.549 16.9117 21.7645C17.7937 22.0684 18.5978 22.0255 19.2339 21.9265C19.9429 21.8046 21.4164 20.9613 21.724 20.0176C22.0389 19.0739 22.0389 18.2908 21.9463 18.1101C21.8549 17.9293 21.6128 17.8289 21.2423 17.6482Z" fill="#0C4E68"/>
<path d="M24.795 4.16799C15.5041 -4.81339 0.128083 1.70062 0.122042 14.371C0.122042 16.9036 0.785417 19.3734 2.04933 21.5544L0 29L7.65479 27.0039C17.2067 32.1634 28.9952 25.3122 29 14.3782C29 10.5406 27.5017 6.92898 24.7769 4.21511L24.795 4.16799ZM26.5858 14.3383C26.5785 23.5614 16.4539 29.3214 8.44625 24.6138L8.01125 24.3553L3.48 25.5334L4.69438 21.1291L4.40558 20.6759C-0.577584 12.7434 5.1475 2.37606 14.587 2.37606C17.7939 2.37606 20.8039 3.62667 23.0707 5.89225C25.3363 8.1385 26.5858 11.1484 26.5858 14.3383Z" fill="#0C4E68"/>
</g>
<defs>
<clipPath id="clip0">
<rect width="29" height="29" fill="white"/>
</clipPath>
</defs>
</svg>
